<?xml version="1.0" encoding="UTF-8"?>
<svg width="215px" height="19px" viewBox="0 0 215 19" version="1.1" xmlns="http://www.w3.org/2000/svg" xmlns:xlink="http://www.w3.org/1999/xlink">
    <!-- Generator: Sketch 60.1 (88133) - https://sketch.com -->
    <title>FRANKIE'SPIZZA</title>
    <desc>Created with Sketch.</desc>
    <g id="Page-1" stroke="none" stroke-width="1" fill="none" fill-rule="evenodd">
        <g id="Homepage" transform="translate(-703.000000, -77.000000)" fill="#FFFFFF" fill-rule="nonzero">
            <path d="M703,95.7327352 L703,77.9960737 L716.181816,77.9960737 L716.181816,81.907858 L707.498175,81.907858 L707.498175,86.086907 L714.594225,86.086907 L714.594225,89.3183809 L707.498175,89.3183809 L707.498175,95.7327352 L703,95.7327352 Z M724.648968,89.5613489 L723.061377,89.5613489 L723.061377,95.7327352 L718.563203,95.7327352 L718.563203,77.9960737 L727.198736,77.9960737 C731.456366,77.9960737 733.669372,80.0370047 733.669372,83.1469946 C733.669372,85.5766743 732.081781,87.4718244 728.930653,88.0792443 C729.796612,88.2007283 730.470135,88.4193995 731.023387,88.7595546 C732.033672,89.4155681 732.586923,90.6061112 733.164229,92.5984485 L734.078297,95.7327352 L729.123088,95.7327352 L728.305238,92.6470421 C727.607661,89.9986912 727.102518,89.5613489 724.648968,89.5613489 Z M725.899797,81.7377804 L723.061377,81.7377804 L723.061377,86.5485461 L725.875743,86.5485461 C728.04064,86.5485461 729.147143,85.6009711 729.147143,84.0945697 C729.147143,82.5638715 728.160912,81.7377804 725.899797,81.7377804 Z M734.607494,95.7327352 L741.198402,77.9960737 L746.177664,77.9960737 L752.792627,95.7327352 L748.150126,95.7327352 L747.091732,92.6470421 L740.308389,92.6470421 L739.249995,95.7327352 L734.607494,95.7327352 Z M743.31519,83.8273049 L741.366783,89.5370521 L746.009283,89.5370521 L744.012768,83.8273049 L743.651951,82.4423875 L743.31519,83.8273049 Z M758.830284,83.8273049 L758.830284,95.7327352 L754.452381,95.7327352 L754.452381,77.9960737 L759.984895,77.9960737 L765.782008,89.8043169 L766.239042,91.1892343 L766.142824,89.4155681 L766.142824,77.9960737 L770.520726,77.9960737 L770.520726,95.7327352 L765.228756,95.7327352 L759.1911,83.3656658 L758.637848,81.907858 L758.830284,83.8273049 Z M773.6478,95.7327352 L773.6478,77.9960737 L778.145974,77.9960737 L778.145974,87.0344821 L784.784991,77.9960737 L790.028852,77.9960737 L784.063359,85.7224551 L790.293451,95.7327352 L785.073644,95.7327352 L780.431143,87.7147924 L778.145974,90.6790016 L778.145974,95.7327352 L773.6478,95.7327352 Z M791.977259,95.7327352 L791.977259,77.9960737 L796.595706,77.9960737 L796.595706,95.7327352 L791.977259,95.7327352 Z M799.746833,95.7327352 L799.746833,77.9960737 L813.241357,77.9960737 L813.241357,81.7620772 L804.124736,81.7620772 L804.124736,85.1879255 L811.172678,85.1879255 L811.172678,88.4193995 L804.124736,88.4193995 L804.124736,91.9181382 L813.433792,91.9181382 L813.433792,95.7327352 L799.746833,95.7327352 Z M816.311019,84.3198845 L815.582809,77 L819.353056,77 L818.483903,84.3198845 L816.311019,84.3198845 Z M820.483425,92.5255581 L824.043478,89.4641617 C825.318362,91.0677503 826.737572,92.0153254 829.070849,92.0153254 C830.706549,92.0153254 831.500345,91.2621247 831.500345,90.265956 C831.500345,88.953929 830.05708,88.6380706 827.098388,88.1278379 C823.490227,87.520418 821.205058,86.451359 821.205058,83.1226978 C821.205058,80.1341918 823.658607,77.6802154 828.060564,77.6802154 C831.283855,77.6802154 833.881731,78.7006808 835.974465,81.2275477 L832.366304,84.0945697 C831.283855,82.4909811 829.888699,81.5919996 827.699748,81.5919996 C825.967831,81.5919996 825.19809,82.3937939 825.19809,83.2927754 C825.19809,84.5562088 826.40081,84.8720672 829.167067,85.3094095 C833.232262,85.9897198 835.589594,87.1802628 835.589594,90.508924 C835.589594,93.7889915 832.991718,96 828.782197,96 C824.76511,96 822.311561,94.6393794 820.483425,92.5255581 Z M851.585776,90.8490791 L848.530866,90.8490791 L848.530866,95.7327352 L844.032692,95.7327352 L844.032692,77.9960737 L851.778212,77.9960737 C856.925855,77.9960737 859.283187,80.595831 859.283187,84.3132409 C859.283187,88.0063539 856.757474,90.8490791 851.585776,90.8490791 Z M851.273069,81.8349676 L848.530866,81.8349676 L848.530866,87.763386 L851.22496,87.763386 C853.534184,87.763386 854.736904,86.6943269 854.736904,84.77488 C854.736904,82.7825427 853.582292,81.8349676 851.273069,81.8349676 Z M861.616465,95.7327352 L861.616465,77.9960737 L866.234912,77.9960737 L866.234912,95.7327352 L861.616465,95.7327352 Z M868.664407,91.820951 L877.203722,83.0012138 L878.454551,81.9807484 L869.073332,81.9807484 L869.073332,77.9960737 L882.712182,77.9960737 L882.712182,81.8835612 L874.653955,90.2416592 L872.970146,91.6751702 L882.856508,91.6751702 L882.856508,95.7327352 L868.664407,95.7327352 L868.664407,91.820951 Z M884.61248,91.820951 L893.151795,83.0012138 L894.402625,81.9807484 L885.021405,81.9807484 L885.021405,77.9960737 L898.660255,77.9960737 L898.660255,81.8835612 L890.602028,90.2416592 L888.918219,91.6751702 L898.804582,91.6751702 L898.804582,95.7327352 L884.61248,95.7327352 L884.61248,91.820951 Z M899.814867,95.7327352 L906.405775,77.9960737 L911.385037,77.9960737 L918,95.7327352 L913.357499,95.7327352 L912.299105,92.6470421 L905.515762,92.6470421 L904.457368,95.7327352 L899.814867,95.7327352 Z M908.522563,83.8273049 L906.574156,89.5370521 L911.216657,89.5370521 L909.220141,83.8273049 L908.859325,82.4423875 L908.522563,83.8273049 Z" id="FRANKIE'SPIZZA"></path>
        </g>
    </g>
</svg>